# xmcd
#
# Track frame offsets:
#	150
#	19450
#	37482
#	57909
#	73852
#	92065
#	106763
#	124663
#	141275
#	160568
#	178618
#	199048
#	214971
#	233029
#	247773
#	265568
#	282152
#	305499
#
# Disc length: 4383 seconds
#
# Revision: 0
# Processed by: cddbd v1.5.1PL2 Copyright (c) Steve Scherf et al.
# Submitted via: audiograbber 1.83.01
#
DISCID=02111d12
DTITLE=Sound Choice - sc2409
DYEAR=1900
DGENRE=Karaoke Country
TTITLE0=McBride, Martina - Blessed (Radio)
TTITLE1=Jones, George - 50000 names
TTITLE2=Montgomery Gentry - My Town
TTITLE3=Keith, Toby - My List
TTITLE4=Diamond Rio - I Believe
TTITLE5=Parton, Dolly - Hello God
TTITLE6=Flatts, Rascal - I'm Movin' On
TTITLE7=Keith, Toby - Courtesy Of The Red White And Blue
TTITLE8=McBride, Martina - Blessed (Radio) (Vocal)
TTITLE9=Jones, George - 50000 Names (Vocal)
TTITLE10=Montgomery Gentry - My Town (Vocal)
TTITLE11=Keith, Toby - My List (Vocal)
TTITLE12=Diamond Rio - I Believe (Vocal)
TTITLE13=Parton, Dolly - Hello God (Vocal)
TTITLE14=Flatts, Rascal - I'm Movin' On (Vocal)
TTITLE15=Keith, Toby - Courtesy Of The Red White And Blue (Vocal)
TTITLE16=Kid Rock and Crow, Sheryl - Picture
TTITLE17=Kid Rock and Crow, Sheryl - Picture (Vocal)
EXTD=
EXTT0=
EXTT1=
EXTT2=
EXTT3=
EXTT4=
EXTT5=
EXTT6=
EXTT7=
EXTT8=
EXTT9=
EXTT10=
EXTT11=
EXTT12=
EXTT13=
EXTT14=
EXTT15=
EXTT16=
EXTT17=
PLAYORDER=
